<svg height="512pt" viewBox="-64 0 512 512" width="512pt" xmlns="http://www.w3.org/2000/svg"><path d="m379.613281 162.707031c-99.628906-99.628906-159.207031-159.046875-160.503906-160.34375-1.382813-1.453125-3.324219-2.363281-5.488281-2.363281-.019532 0-.039063.00390625-.0625.00390625h-194.796875c-10.34375 0-18.761719 8.41796875-18.761719 18.76171875v288.011719c0 4.179687 3.390625 7.570312 7.570312 7.570312 4.175782 0 7.570313-3.390625 7.570313-7.570312v-288.011719c0-2 1.625-3.625 3.621094-3.625h187.292969v53.84375c0 11.546875 9.394531 20.941406 20.941406 20.941406h53.820312v316.113281c0 2.007813-1.636718 3.632813-3.632812 3.632813-8.691406 0-242.265625 0-258.421875 0-1.996094 0-3.621094-1.625-3.621094-3.632813v-68.984374c0-4.179688-3.394531-7.570313-7.570313-7.570313-4.179687 0-7.570312 3.390625-7.570312 7.570313v68.984374c0 10.355469 8.417969 18.769532 18.761719 18.769532h24.605469v24.4375c0 10.34375 8.417968 18.769531 18.773437 18.769531h25.210937v25.210937c0 10.347657 8.417969 18.773438 18.773438 18.773438h258.410156c10.355469 0 18.769532-8.425781 18.769532-18.773438v-321.597656c0-3.371094-1.308594-6.542968-3.691407-8.921875zm-152.617187-87.917969c-3.199219 0-5.804688-2.605468-5.804688-5.804687v-43.121094c17.648438 17.644531 31.199219 31.199219 48.925782 48.921875h-43.121094zm-164.855469 378.089844c-2.007813 0-3.632813-1.636718-3.632813-3.632812v-24.4375h218.675782c10.355468 0 18.769531-8.414063 18.769531-18.769532v-305.585937c16.574219 16.574219 11.859375 11.859375 28.230469 28.230469v320.5625c0 1.996094-1.625 3.632812-3.632813 3.632812-8.277343 0-242.273437 0-258.410156 0zm306.027344 40.347656c0 2-1.625 3.632813-3.632813 3.632813h-258.410156c-2.011719 0-3.636719-1.632813-3.636719-3.632813v-25.210937h218.0625c10.355469 0 18.773438-8.425781 18.773438-18.769531v-305.421875l28.84375 28.84375zm0 0"/><path d="m147.976562 33.195312c-27.234374 0-49.390624 22.15625-49.390624 49.390626v89.8125h-12.585938c-19.765625 0-35.847656 16.082031-35.847656 35.847656v142.246094c0 19.765624 16.082031 35.847656 35.847656 35.847656h123.949219c19.769531 0 35.851562-16.082032 35.851562-35.847656v-80.339844c0-4.183594-3.386719-7.570313-7.570312-7.570313-4.179688 0-7.570313 3.386719-7.570313 7.570313v80.339844c0 11.417968-9.289062 20.710937-20.710937 20.710937h-123.949219c-11.417969 0-20.710938-9.292969-20.710938-20.710937v-142.242188c0-11.421875 9.292969-20.710938 20.710938-20.710938h123.949219c11.421875 0 20.710937 9.289063 20.710937 20.710938v31.625c0 4.183594 3.390625 7.570312 7.570313 7.570312 4.183593 0 7.570312-3.386718 7.570312-7.570312v-31.625c0-19.769531-16.082031-35.851562-35.851562-35.851562h-12.582031v-89.8125c0-27.234376-22.15625-49.390626-49.390626-49.390626zm34.25 139.203126h-68.503906v-89.8125c0-18.886719 15.367188-34.25 34.25-34.25 18.886719 0 34.253906 15.363281 34.253906 34.25zm0 0"/><path d="m147.976562 331.535156c12.65625 0 22.957032-10.300781 22.957032-22.960937v-17.027344c8.402344-6.851563 13.3125-17.066406 13.3125-28.070313 0-20-16.273438-36.269531-36.269532-36.269531-20 0-36.269531 16.269531-36.269531 36.269531 0 11.003907 4.90625 21.21875 13.308594 28.070313v17.027344c0 12.660156 10.300781 22.960937 22.960937 22.960937zm0-89.191406c11.648438 0 21.128907 9.480469 21.128907 21.132812 0 7.253907-3.664063 13.921876-9.804688 17.832032-2.183593 1.390625-3.503906 3.796875-3.503906 6.382812v20.882813c0 4.3125-3.511719 7.820312-7.820313 7.820312-4.3125 0-7.820312-3.507812-7.820312-7.820312v-20.882813c0-2.585937-1.324219-4.992187-3.503906-6.382812-6.140625-3.910156-9.808594-10.578125-9.808594-17.832032 0-11.652343 9.480469-21.132812 21.132812-21.132812zm0 0"/></svg>